<mxfile host="app.diagrams.net" modified="2022-07-13T03:33:48.857Z" agent="5.0 (Windows)" etag="Lg12JvM02UueVQ7EXvg_" version="20.1.1" type="github">
  <diagram id="bCXHxNs5Iz71OUzn1oAT" name="Page-1">
    <mxGraphModel dx="1422" dy="905" grid="1" gridSize="10" guides="1" tooltips="1" connect="1" arrows="1" fold="1" page="1" pageScale="1" pageWidth="827" pageHeight="1169" math="0" shadow="0">
      <root>
        <mxCell id="0" />
        <mxCell id="1" parent="0" />
        <mxCell id="E3-ge6lxN-IAzTH8m7Cu-1" value="&lt;div&gt;유저&lt;/div&gt;" style="shape=umlActor;verticalLabelPosition=bottom;verticalAlign=top;html=1;outlineConnect=0;" vertex="1" parent="1">
          <mxGeometry x="60" y="330" width="30" height="60" as="geometry" />
        </mxCell>
        <mxCell id="E3-ge6lxN-IAzTH8m7Cu-2" value="&lt;div&gt;게시판 서비스&lt;/div&gt;" style="shape=umlFrame;whiteSpace=wrap;html=1;width=100;height=30;" vertex="1" parent="1">
          <mxGeometry x="120" y="190" width="400" height="410" as="geometry" />
        </mxCell>
        <mxCell id="E3-ge6lxN-IAzTH8m7Cu-5" value="&lt;div&gt;회원 가입&lt;/div&gt;" style="rounded=1;whiteSpace=wrap;html=1;arcSize=40;fontColor=#000000;fillColor=#ffffc0;strokeColor=#ff0000;" vertex="1" parent="1">
          <mxGeometry x="160" y="290" width="90" height="40" as="geometry" />
        </mxCell>
        <mxCell id="E3-ge6lxN-IAzTH8m7Cu-7" value="&lt;div&gt;로그인&lt;/div&gt;" style="rounded=1;whiteSpace=wrap;html=1;arcSize=40;fontColor=#000000;fillColor=#ffffc0;strokeColor=#ff0000;" vertex="1" parent="1">
          <mxGeometry x="260" y="210" width="80" height="30" as="geometry" />
        </mxCell>
        <mxCell id="E3-ge6lxN-IAzTH8m7Cu-8" value="&lt;div&gt;게시판 열람&lt;/div&gt;" style="rounded=1;whiteSpace=wrap;html=1;arcSize=40;fontColor=#000000;fillColor=#ffffc0;strokeColor=#ff0000;" vertex="1" parent="1">
          <mxGeometry x="150" y="350" width="80" height="40" as="geometry" />
        </mxCell>
        <mxCell id="E3-ge6lxN-IAzTH8m7Cu-9" value="&lt;div&gt;계정 인증&lt;/div&gt;" style="rounded=1;whiteSpace=wrap;html=1;arcSize=40;fontColor=#000000;fillColor=#ffffc0;strokeColor=#ff0000;" vertex="1" parent="1">
          <mxGeometry x="414" y="200" width="80" height="30" as="geometry" />
        </mxCell>
        <mxCell id="E3-ge6lxN-IAzTH8m7Cu-10" value="&lt;div&gt;게시글 열람&lt;/div&gt;" style="rounded=1;whiteSpace=wrap;html=1;arcSize=40;fontColor=#000000;fillColor=#ffffc0;strokeColor=#ff0000;" vertex="1" parent="1">
          <mxGeometry x="150" y="430" width="80" height="40" as="geometry" />
        </mxCell>
        <mxCell id="E3-ge6lxN-IAzTH8m7Cu-12" value="&lt;div&gt;인증 실패&lt;/div&gt;" style="rounded=1;whiteSpace=wrap;html=1;arcSize=40;fontColor=#000000;fillColor=#ffffc0;strokeColor=#ff0000;" vertex="1" parent="1">
          <mxGeometry x="414" y="240" width="80" height="30" as="geometry" />
        </mxCell>
        <mxCell id="E3-ge6lxN-IAzTH8m7Cu-34" value="" style="edgeStyle=none;rounded=0;orthogonalLoop=1;jettySize=auto;html=1;dashed=1;endArrow=classic;endFill=1;entryX=1;entryY=0.5;entryDx=0;entryDy=0;" edge="1" parent="1" source="E3-ge6lxN-IAzTH8m7Cu-13" target="E3-ge6lxN-IAzTH8m7Cu-8">
          <mxGeometry relative="1" as="geometry">
            <mxPoint x="220" y="420" as="targetPoint" />
          </mxGeometry>
        </mxCell>
        <mxCell id="E3-ge6lxN-IAzTH8m7Cu-13" value="&lt;div&gt;게시판 정렬&lt;/div&gt;" style="rounded=1;whiteSpace=wrap;html=1;arcSize=40;fontColor=#000000;fillColor=#ffffc0;strokeColor=#ff0000;" vertex="1" parent="1">
          <mxGeometry x="270" y="357" width="80" height="30" as="geometry" />
        </mxCell>
        <mxCell id="E3-ge6lxN-IAzTH8m7Cu-15" value="&lt;div&gt;검색&lt;/div&gt;" style="rounded=1;whiteSpace=wrap;html=1;arcSize=40;fontColor=#000000;fillColor=#ffffc0;strokeColor=#ff0000;" vertex="1" parent="1">
          <mxGeometry x="140" y="545" width="80" height="40" as="geometry" />
        </mxCell>
        <mxCell id="E3-ge6lxN-IAzTH8m7Cu-19" value="&lt;div&gt;게시글 작성, 편집, 삭제&lt;/div&gt;" style="rounded=1;whiteSpace=wrap;html=1;arcSize=40;fontColor=#000000;fillColor=#ffffc0;strokeColor=#ff0000;" vertex="1" parent="1">
          <mxGeometry x="270" y="451" width="80" height="40" as="geometry" />
        </mxCell>
        <mxCell id="E3-ge6lxN-IAzTH8m7Cu-20" value="&lt;div&gt;댓글 열람, 작성, 편집, 삭제&lt;br&gt;&lt;/div&gt;" style="rounded=1;whiteSpace=wrap;html=1;arcSize=40;fontColor=#000000;fillColor=#ffffc0;strokeColor=#ff0000;" vertex="1" parent="1">
          <mxGeometry x="270" y="496" width="80" height="40" as="geometry" />
        </mxCell>
        <mxCell id="E3-ge6lxN-IAzTH8m7Cu-26" style="rounded=0;orthogonalLoop=1;jettySize=auto;html=1;exitX=0;exitY=0.5;exitDx=0;exitDy=0;entryX=1;entryY=1;entryDx=0;entryDy=0;entryPerimeter=0;endArrow=none;endFill=0;" edge="1" parent="1" source="E3-ge6lxN-IAzTH8m7Cu-8" target="E3-ge6lxN-IAzTH8m7Cu-1">
          <mxGeometry relative="1" as="geometry">
            <mxPoint x="108.84615384615381" y="400" as="sourcePoint" />
          </mxGeometry>
        </mxCell>
        <mxCell id="E3-ge6lxN-IAzTH8m7Cu-27" style="rounded=0;orthogonalLoop=1;jettySize=auto;html=1;exitX=0;exitY=0.5;exitDx=0;exitDy=0;entryX=1;entryY=1;entryDx=0;entryDy=0;entryPerimeter=0;endArrow=none;endFill=0;" edge="1" parent="1" source="E3-ge6lxN-IAzTH8m7Cu-10">
          <mxGeometry relative="1" as="geometry">
            <mxPoint x="135" y="440" as="sourcePoint" />
            <mxPoint x="85" y="410" as="targetPoint" />
          </mxGeometry>
        </mxCell>
        <mxCell id="E3-ge6lxN-IAzTH8m7Cu-29" style="rounded=0;orthogonalLoop=1;jettySize=auto;html=1;exitX=0;exitY=0.25;exitDx=0;exitDy=0;endArrow=none;endFill=0;entryX=0.75;entryY=0.1;entryDx=0;entryDy=0;entryPerimeter=0;" edge="1" parent="1" source="E3-ge6lxN-IAzTH8m7Cu-7" target="E3-ge6lxN-IAzTH8m7Cu-1">
          <mxGeometry relative="1" as="geometry">
            <mxPoint x="150" y="430" as="sourcePoint" />
            <mxPoint x="110" y="370" as="targetPoint" />
          </mxGeometry>
        </mxCell>
        <mxCell id="E3-ge6lxN-IAzTH8m7Cu-30" value="&amp;lt;&amp;lt;INCLUDE&amp;gt;&amp;gt;" style="rounded=0;orthogonalLoop=1;jettySize=auto;html=1;endArrow=classic;endFill=1;dashed=1;exitX=1;exitY=0.5;exitDx=0;exitDy=0;entryX=0;entryY=0.75;entryDx=0;entryDy=0;" edge="1" parent="1" source="E3-ge6lxN-IAzTH8m7Cu-7" target="E3-ge6lxN-IAzTH8m7Cu-9">
          <mxGeometry relative="1" as="geometry">
            <mxPoint x="390" y="320" as="sourcePoint" />
            <mxPoint x="430" y="230" as="targetPoint" />
          </mxGeometry>
        </mxCell>
        <mxCell id="E3-ge6lxN-IAzTH8m7Cu-31" style="rounded=0;orthogonalLoop=1;jettySize=auto;html=1;exitX=0;exitY=0.5;exitDx=0;exitDy=0;endArrow=classic;endFill=1;entryX=1;entryY=0.5;entryDx=0;entryDy=0;dashed=1;" edge="1" parent="1" source="E3-ge6lxN-IAzTH8m7Cu-12" target="E3-ge6lxN-IAzTH8m7Cu-7">
          <mxGeometry relative="1" as="geometry">
            <mxPoint x="400" y="320" as="sourcePoint" />
            <mxPoint x="360" y="346" as="targetPoint" />
          </mxGeometry>
        </mxCell>
        <mxCell id="E3-ge6lxN-IAzTH8m7Cu-39" value="&amp;lt;&amp;lt;EXTEND&amp;gt;&amp;gt;" style="edgeLabel;html=1;align=center;verticalAlign=middle;resizable=0;points=[];" vertex="1" connectable="0" parent="E3-ge6lxN-IAzTH8m7Cu-31">
          <mxGeometry x="-0.3425" y="2" relative="1" as="geometry">
            <mxPoint as="offset" />
          </mxGeometry>
        </mxCell>
        <mxCell id="E3-ge6lxN-IAzTH8m7Cu-32" style="rounded=0;orthogonalLoop=1;jettySize=auto;html=1;exitX=1;exitY=0.5;exitDx=0;exitDy=0;endArrow=classic;endFill=1;dashed=1;entryX=0.375;entryY=1.1;entryDx=0;entryDy=0;entryPerimeter=0;" edge="1" parent="1" source="E3-ge6lxN-IAzTH8m7Cu-8" target="E3-ge6lxN-IAzTH8m7Cu-7">
          <mxGeometry relative="1" as="geometry">
            <mxPoint x="400" y="370" as="sourcePoint" />
            <mxPoint x="300" y="360" as="targetPoint" />
          </mxGeometry>
        </mxCell>
        <mxCell id="E3-ge6lxN-IAzTH8m7Cu-33" style="rounded=0;orthogonalLoop=1;jettySize=auto;html=1;endArrow=classic;endFill=1;entryX=0.4;entryY=1.025;entryDx=0;entryDy=0;dashed=1;exitX=1;exitY=0.5;exitDx=0;exitDy=0;entryPerimeter=0;" edge="1" parent="1" source="E3-ge6lxN-IAzTH8m7Cu-10" target="E3-ge6lxN-IAzTH8m7Cu-7">
          <mxGeometry relative="1" as="geometry">
            <mxPoint x="240" y="480" as="sourcePoint" />
            <mxPoint x="310" y="430" as="targetPoint" />
          </mxGeometry>
        </mxCell>
        <mxCell id="E3-ge6lxN-IAzTH8m7Cu-35" value="&lt;div&gt;검색&lt;/div&gt;" style="rounded=1;whiteSpace=wrap;html=1;arcSize=40;fontColor=#000000;fillColor=#ffffc0;strokeColor=#ff0000;" vertex="1" parent="1">
          <mxGeometry x="270" y="397" width="80" height="30" as="geometry" />
        </mxCell>
        <mxCell id="E3-ge6lxN-IAzTH8m7Cu-36" value="" style="edgeStyle=none;rounded=0;orthogonalLoop=1;jettySize=auto;html=1;dashed=1;endArrow=classic;endFill=1;exitX=0;exitY=0.5;exitDx=0;exitDy=0;entryX=1;entryY=0.5;entryDx=0;entryDy=0;" edge="1" parent="1" source="E3-ge6lxN-IAzTH8m7Cu-35" target="E3-ge6lxN-IAzTH8m7Cu-8">
          <mxGeometry relative="1" as="geometry">
            <mxPoint x="280" y="427.2222222222222" as="sourcePoint" />
            <mxPoint x="220" y="420" as="targetPoint" />
          </mxGeometry>
        </mxCell>
        <mxCell id="E3-ge6lxN-IAzTH8m7Cu-37" value="" style="edgeStyle=none;rounded=0;orthogonalLoop=1;jettySize=auto;html=1;dashed=1;endArrow=classic;endFill=1;exitX=0;exitY=0.5;exitDx=0;exitDy=0;entryX=1;entryY=0.5;entryDx=0;entryDy=0;" edge="1" parent="1" source="E3-ge6lxN-IAzTH8m7Cu-19" target="E3-ge6lxN-IAzTH8m7Cu-10">
          <mxGeometry relative="1" as="geometry">
            <mxPoint x="260" y="520" as="sourcePoint" />
            <mxPoint x="220" y="492.78" as="targetPoint" />
          </mxGeometry>
        </mxCell>
        <mxCell id="E3-ge6lxN-IAzTH8m7Cu-38" value="" style="edgeStyle=none;rounded=0;orthogonalLoop=1;jettySize=auto;html=1;dashed=1;endArrow=classic;endFill=1;exitX=0;exitY=0.25;exitDx=0;exitDy=0;entryX=1;entryY=0.5;entryDx=0;entryDy=0;" edge="1" parent="1" source="E3-ge6lxN-IAzTH8m7Cu-20" target="E3-ge6lxN-IAzTH8m7Cu-10">
          <mxGeometry relative="1" as="geometry">
            <mxPoint x="250" y="540" as="sourcePoint" />
            <mxPoint x="220" y="492.78" as="targetPoint" />
          </mxGeometry>
        </mxCell>
        <mxCell id="E3-ge6lxN-IAzTH8m7Cu-40" value="&lt;div&gt;Database&lt;/div&gt;" style="html=1;dropTarget=0;strokeColor=default;" vertex="1" parent="1">
          <mxGeometry x="640" y="280" width="80" height="50" as="geometry" />
        </mxCell>
        <mxCell id="E3-ge6lxN-IAzTH8m7Cu-42" style="rounded=0;orthogonalLoop=1;jettySize=auto;html=1;exitX=0;exitY=0.5;exitDx=0;exitDy=0;endArrow=none;endFill=0;entryX=1;entryY=0.5;entryDx=0;entryDy=0;" edge="1" parent="1" source="E3-ge6lxN-IAzTH8m7Cu-40" target="E3-ge6lxN-IAzTH8m7Cu-9">
          <mxGeometry relative="1" as="geometry">
            <mxPoint x="720" y="230" as="sourcePoint" />
            <mxPoint x="532.5" y="258.5" as="targetPoint" />
          </mxGeometry>
        </mxCell>
        <mxCell id="E3-ge6lxN-IAzTH8m7Cu-43" style="rounded=0;orthogonalLoop=1;jettySize=auto;html=1;exitX=0;exitY=0.5;exitDx=0;exitDy=0;endArrow=none;endFill=0;entryX=1;entryY=0.25;entryDx=0;entryDy=0;" edge="1" parent="1" source="E3-ge6lxN-IAzTH8m7Cu-40" target="E3-ge6lxN-IAzTH8m7Cu-8">
          <mxGeometry relative="1" as="geometry">
            <mxPoint x="680" y="400" as="sourcePoint" />
            <mxPoint x="590" y="410" as="targetPoint" />
          </mxGeometry>
        </mxCell>
        <mxCell id="E3-ge6lxN-IAzTH8m7Cu-45" style="rounded=0;orthogonalLoop=1;jettySize=auto;html=1;endArrow=none;endFill=0;entryX=1;entryY=0.3333333333333333;entryDx=0;entryDy=0;entryPerimeter=0;exitX=0;exitY=0.5;exitDx=0;exitDy=0;" edge="1" parent="1" source="E3-ge6lxN-IAzTH8m7Cu-5" target="E3-ge6lxN-IAzTH8m7Cu-1">
          <mxGeometry relative="1" as="geometry">
            <mxPoint x="130" y="110" as="sourcePoint" />
            <mxPoint x="92.5" y="346" as="targetPoint" />
          </mxGeometry>
        </mxCell>
        <mxCell id="E3-ge6lxN-IAzTH8m7Cu-46" style="rounded=0;orthogonalLoop=1;jettySize=auto;html=1;endArrow=none;endFill=0;entryX=1;entryY=0.5;entryDx=0;entryDy=0;exitX=0;exitY=0.5;exitDx=0;exitDy=0;" edge="1" parent="1" source="E3-ge6lxN-IAzTH8m7Cu-40" target="E3-ge6lxN-IAzTH8m7Cu-20">
          <mxGeometry relative="1" as="geometry">
            <mxPoint x="640" y="420" as="sourcePoint" />
            <mxPoint x="620" y="580" as="targetPoint" />
          </mxGeometry>
        </mxCell>
        <mxCell id="E3-ge6lxN-IAzTH8m7Cu-47" style="rounded=0;orthogonalLoop=1;jettySize=auto;html=1;endArrow=none;endFill=0;entryX=1;entryY=0.5;entryDx=0;entryDy=0;exitX=0;exitY=0.5;exitDx=0;exitDy=0;" edge="1" parent="1" source="E3-ge6lxN-IAzTH8m7Cu-40" target="E3-ge6lxN-IAzTH8m7Cu-19">
          <mxGeometry relative="1" as="geometry">
            <mxPoint x="790" y="340" as="sourcePoint" />
            <mxPoint x="500" y="600" as="targetPoint" />
          </mxGeometry>
        </mxCell>
        <mxCell id="E3-ge6lxN-IAzTH8m7Cu-48" style="rounded=0;orthogonalLoop=1;jettySize=auto;html=1;endArrow=none;endFill=0;entryX=1;entryY=0.5;entryDx=0;entryDy=0;" edge="1" parent="1" target="E3-ge6lxN-IAzTH8m7Cu-10">
          <mxGeometry relative="1" as="geometry">
            <mxPoint x="280" y="440" as="sourcePoint" />
            <mxPoint x="420" y="350" as="targetPoint" />
          </mxGeometry>
        </mxCell>
        <mxCell id="E3-ge6lxN-IAzTH8m7Cu-49" style="rounded=0;orthogonalLoop=1;jettySize=auto;html=1;endArrow=none;endFill=0;exitX=0;exitY=0.5;exitDx=0;exitDy=0;" edge="1" parent="1" source="E3-ge6lxN-IAzTH8m7Cu-40">
          <mxGeometry relative="1" as="geometry">
            <mxPoint x="290" y="489.8699999999999" as="sourcePoint" />
            <mxPoint x="360" y="440" as="targetPoint" />
          </mxGeometry>
        </mxCell>
        <mxCell id="E3-ge6lxN-IAzTH8m7Cu-50" style="rounded=0;orthogonalLoop=1;jettySize=auto;html=1;endArrow=none;endFill=0;" edge="1" parent="1">
          <mxGeometry relative="1" as="geometry">
            <mxPoint x="360" y="440" as="sourcePoint" />
            <mxPoint x="280" y="440" as="targetPoint" />
          </mxGeometry>
        </mxCell>
      </root>
    </mxGraphModel>
  </diagram>
</mxfile>
